M48
; DRILL file {KiCad 9.0.1} date 2025-04-30T15:00:40+0200
; FORMAT={-:-/ absolute / inch / decimal}
; #@! TF.CreationDate,2025-04-30T15:00:40+02:00
; #@! TF.GenerationSoftware,Kicad,Pcbnew,9.0.1
; #@! TF.FileFunction,Plated,1,2,PTH
FMAT,2
INCH
; #@! TA.AperFunction,Plated,PTH,ViaDrill
T1C0.0079
%
G90
G05
T1
X5.748Y-3.5827
X5.748Y-3.622
X5.748Y-3.6614
X5.748Y-3.7402
X5.748Y-3.7795
X5.748Y-3.8189
X5.748Y-3.8583
X5.748Y-3.8976
X5.748Y-4.0157
X5.7874Y-3.5827
X5.7874Y-3.8976
X5.7874Y-4.0157
X5.8268Y-3.5827
X5.8268Y-3.8976
X5.8268Y-4.0157
X5.8661Y-3.5827
X5.8661Y-3.8976
X5.8661Y-4.0157
X5.9055Y-3.5827
X5.9055Y-4.0157
X5.9449Y-3.5827
X5.9449Y-3.7008
X5.9449Y-3.7402
X5.9449Y-3.7795
X5.9449Y-3.8189
X5.9449Y-3.8583
X5.9449Y-3.8878
X5.9449Y-4.0157
X5.9843Y-3.5827
X5.9843Y-3.7008
X5.9843Y-4.0157
X6.0236Y-3.5827
X6.0236Y-3.7008
X6.0236Y-4.0157
X6.0614Y-3.7821
X6.063Y-3.5827
X6.063Y-3.7008
X6.063Y-3.8821
X6.063Y-4.0157
X6.1024Y-3.5827
X6.1024Y-3.8189
X6.1024Y-3.8821
X6.1024Y-4.0157
X6.1417Y-4.0157
X6.1811Y-3.937
X6.1811Y-3.9764
X6.1811Y-4.0157
X6.2205Y-3.622
X6.2205Y-4.0157
X6.2598Y-3.622
X6.2598Y-3.7402
X6.2598Y-3.8976
X6.2598Y-4.0157
X6.2992Y-3.622
X6.2992Y-3.7402
X6.2992Y-3.8287
X6.2992Y-3.8976
X6.3386Y-3.622
X6.378Y-3.937
X6.4173Y-3.937
X6.4173Y-4.0306
X6.4567Y-3.5827
X6.4567Y-3.7008
X6.4567Y-3.7402
X6.4567Y-3.8583
X6.4567Y-3.8976
X6.4567Y-3.937
X6.4567Y-4.0306
X6.4665Y-3.8091
X6.4961Y-3.5827
X6.4961Y-3.7008
X6.4961Y-3.7402
X6.4961Y-3.8583
X6.4961Y-3.937
X6.4961Y-4.0306
X6.5354Y-3.5827
X6.5354Y-3.7008
X6.5354Y-3.7402
X6.5354Y-3.8583
X6.5354Y-3.8976
X6.5354Y-3.937
X6.5354Y-4.0306
X6.5748Y-3.7402
X6.5748Y-3.8583
X6.6142Y-3.7402
X6.6142Y-3.8583
X6.6535Y-3.7402
X6.6535Y-3.8583
X6.6929Y-3.7402
X6.6929Y-3.8583
X6.7323Y-3.7402
X6.7323Y-3.8583
X6.7323Y-4.0306
X6.7717Y-3.5827
X6.7717Y-3.622
X6.7717Y-3.6614
X6.7717Y-3.7008
X6.7717Y-3.7402
X6.7717Y-3.8583
X6.7717Y-3.937
X6.7717Y-4.0306
X6.811Y-3.5827
X6.811Y-3.7402
X6.811Y-3.8583
X6.811Y-3.937
X6.811Y-4.0306
X6.8504Y-3.5827
X6.8504Y-3.7402
X6.8504Y-3.8583
X6.8504Y-3.937
X6.8504Y-4.0306
X6.9539Y-3.8783
X7.0079Y-3.5827
X7.0079Y-4.0157
X7.0236Y-3.8693
X7.0472Y-3.5827
X7.0472Y-3.6614
X7.0472Y-3.7008
X7.0472Y-3.7402
X7.0472Y-3.7795
X7.0472Y-3.8189
X7.0472Y-3.937
X7.0472Y-3.9764
X7.0472Y-4.0157
M30
