%TF.GenerationSoftware,KiCad,Pcbnew,9.0.1*%
%TF.CreationDate,2025-04-30T15:38:21+02:00*%
%TF.ProjectId,board,626f6172-642e-46b6-9963-61645f706362,rev?*%
%TF.SameCoordinates,Original*%
%TF.FileFunction,Copper,L2,Bot*%
%TF.FilePolarity,Positive*%
%FSLAX46Y46*%
G04 Gerber Fmt 4.6, Leading zero omitted, Abs format (unit mm)*
G04 Created by KiCad (PCBNEW 9.0.1) date 2025-04-30 15:38:21*
%MOMM*%
%LPD*%
G01*
G04 APERTURE LIST*
G04 Aperture macros list*
%AMFreePoly0*
4,1,5,0.500000,-1.800000,-0.500000,-1.800000,-0.500000,1.800000,0.500000,1.900000,0.500000,-1.800000,0.500000,-1.800000,$1*%
%AMFreePoly1*
4,1,5,0.500000,-1.500000,-0.500000,-1.500000,-0.500000,2.300000,0.500000,2.400000,0.500000,-1.500000,0.500000,-1.500000,$1*%
%AMFreePoly2*
4,1,5,0.500000,1.800000,0.500000,-1.800000,-0.500000,-1.800000,-0.500000,1.900000,0.500000,1.800000,0.500000,1.800000,$1*%
%AMFreePoly3*
4,1,5,0.500000,1.700000,0.500000,-1.700000,-0.500000,-1.700000,-0.500000,1.800000,0.500000,1.700000,0.500000,1.700000,$1*%
%AMFreePoly4*
4,1,5,0.500000,1.900000,0.500000,-1.900000,-0.500000,-1.900000,-0.500000,2.000000,0.500000,1.900000,0.500000,1.900000,$1*%
G04 Aperture macros list end*
%TA.AperFunction,SMDPad,CuDef*%
%ADD10FreePoly0,270.000000*%
%TD*%
%TA.AperFunction,SMDPad,CuDef*%
%ADD11FreePoly1,270.000000*%
%TD*%
%TA.AperFunction,SMDPad,CuDef*%
%ADD12R,4.000000X1.000000*%
%TD*%
%TA.AperFunction,SMDPad,CuDef*%
%ADD13FreePoly2,270.000000*%
%TD*%
%TA.AperFunction,SMDPad,CuDef*%
%ADD14FreePoly3,270.000000*%
%TD*%
%TA.AperFunction,SMDPad,CuDef*%
%ADD15FreePoly0,90.000000*%
%TD*%
%TA.AperFunction,SMDPad,CuDef*%
%ADD16R,3.500000X1.000000*%
%TD*%
%TA.AperFunction,SMDPad,CuDef*%
%ADD17FreePoly2,90.000000*%
%TD*%
%TA.AperFunction,SMDPad,CuDef*%
%ADD18FreePoly4,90.000000*%
%TD*%
%TA.AperFunction,ViaPad*%
%ADD19C,0.500000*%
%TD*%
%TA.AperFunction,Conductor*%
%ADD20C,0.500000*%
%TD*%
G04 APERTURE END LIST*
D10*
%TO.P,J2,6,NC*%
%TO.N,unconnected-(J2-NC-Pad6)*%
X142400000Y-92500000D03*
D11*
%TO.P,J2,7,NC*%
%TO.N,unconnected-(J2-NC-Pad7)*%
X142100000Y-94500000D03*
D12*
%TO.P,J2,8,NC*%
%TO.N,unconnected-(J2-NC-Pad8)*%
X142600000Y-96500000D03*
D13*
%TO.P,J2,9,3.3V*%
%TO.N,unconnected-(J2-3.3V-Pad9)*%
X142400000Y-98500000D03*
D14*
%TO.P,J2,10,5V*%
%TO.N,/implementation/CE*%
X142300000Y-100500000D03*
%TD*%
D15*
%TO.P,J1,6,C4+*%
%TO.N,unconnected-(J1-C4+-Pad6)*%
X182600000Y-92500000D03*
D16*
%TO.P,J1,7*%
%TO.N,N/C*%
X182650000Y-94500000D03*
%TO.P,J1,8*%
X182650000Y-96500000D03*
D17*
%TO.P,J1,9*%
X182600000Y-98500000D03*
D18*
%TO.P,J1,10*%
X182500000Y-100500000D03*
%TD*%
D19*
%TO.N,/implementation/CE*%
X153960000Y-96065000D03*
%TO.N,GND*%
X179000000Y-95000000D03*
X178000000Y-102000000D03*
X165000000Y-100000000D03*
X166000000Y-100000000D03*
X159000000Y-99000000D03*
X171000000Y-95000000D03*
X146000000Y-98000000D03*
X147000000Y-91000000D03*
X174000000Y-102378000D03*
X155000000Y-98605000D03*
X173000000Y-91000000D03*
X146000000Y-92000000D03*
X160000000Y-95000000D03*
X157000000Y-102000000D03*
X150000000Y-91000000D03*
X173000000Y-102378000D03*
X155000000Y-97000000D03*
X164000000Y-99000000D03*
X160000000Y-92000000D03*
X166000000Y-98000000D03*
X166000000Y-91000000D03*
X162000000Y-100000000D03*
X150000000Y-102000000D03*
X154000000Y-91000000D03*
X159000000Y-92000000D03*
X151000000Y-94000000D03*
X169000000Y-98000000D03*
X173000000Y-100000000D03*
X174000000Y-98000000D03*
X146000000Y-102000000D03*
X179000000Y-91000000D03*
X157000000Y-101000000D03*
X165000000Y-94000000D03*
X163000000Y-102378000D03*
X173000000Y-95000000D03*
X168000000Y-95000000D03*
X173000000Y-98000000D03*
X146000000Y-93000000D03*
X154000000Y-102000000D03*
X179000000Y-94000000D03*
X170000000Y-98000000D03*
X146000000Y-99000000D03*
X151000000Y-102000000D03*
X159000000Y-95000000D03*
X161000000Y-92000000D03*
X149000000Y-91000000D03*
X164000000Y-94000000D03*
X179000000Y-100000000D03*
X146000000Y-97000000D03*
X179000000Y-96000000D03*
X165000000Y-91000000D03*
X147000000Y-99000000D03*
X172000000Y-95000000D03*
X151000000Y-98750000D03*
X172000000Y-94000000D03*
X179000000Y-93000000D03*
X163000000Y-100000000D03*
X164000000Y-102378000D03*
X169000000Y-95000000D03*
X165000000Y-102378000D03*
X166000000Y-99000000D03*
X178000000Y-91000000D03*
X174000000Y-95000000D03*
X152000000Y-94000000D03*
X146000000Y-95000000D03*
X174000000Y-100000000D03*
X158000000Y-92000000D03*
X164000000Y-100000000D03*
X166000000Y-102378000D03*
X153000000Y-94000000D03*
X149000000Y-102000000D03*
X166000000Y-94000000D03*
X172000000Y-100000000D03*
X170000000Y-95000000D03*
X153000000Y-91000000D03*
X151000000Y-95000000D03*
X174000000Y-91000000D03*
X148000000Y-102000000D03*
X164000000Y-95000000D03*
X157000000Y-100000000D03*
X172000000Y-92000000D03*
X164000000Y-98000000D03*
X179000000Y-97000000D03*
X167000000Y-98000000D03*
X154000000Y-98605000D03*
X147000000Y-102000000D03*
X151000000Y-91000000D03*
X172000000Y-91000000D03*
X179000000Y-102000000D03*
X172000000Y-98000000D03*
X165000000Y-95000000D03*
X158000000Y-102000000D03*
X171000000Y-98000000D03*
X164000000Y-91000000D03*
X179000000Y-101000000D03*
X151000000Y-97000000D03*
X166000000Y-95000000D03*
X148000000Y-99000000D03*
X154000000Y-94000000D03*
X149000000Y-99000000D03*
X152000000Y-91000000D03*
X155000000Y-91000000D03*
X167000000Y-95000000D03*
X152000000Y-102000000D03*
X172000000Y-102378000D03*
X146000000Y-91000000D03*
X171000000Y-102378000D03*
X153000000Y-102000000D03*
X156000000Y-102000000D03*
X168000000Y-98000000D03*
X148000000Y-91000000D03*
X172000000Y-93000000D03*
X165000000Y-98000000D03*
X160000000Y-99000000D03*
X151000000Y-98000000D03*
X146000000Y-96000000D03*
X159000000Y-102000000D03*
X155000000Y-102000000D03*
X151000000Y-96000000D03*
%TO.N,/implementation/BATT*%
X178400000Y-98280000D03*
X164250000Y-96750000D03*
X176630000Y-98510000D03*
X160000000Y-97250000D03*
%TD*%
D20*
%TO.N,/implementation/CE*%
X153000000Y-97025000D02*
X153960000Y-96065000D01*
X153000000Y-99000000D02*
X153000000Y-97025000D01*
X142300000Y-100490000D02*
X151510000Y-100490000D01*
X151510000Y-100490000D02*
X153000000Y-99000000D01*
%TO.N,/implementation/BATT*%
X176860000Y-98280000D02*
X176630000Y-98510000D01*
X160500000Y-96750000D02*
X160000000Y-97250000D01*
X164250000Y-96750000D02*
X160500000Y-96750000D01*
X178400000Y-98280000D02*
X176860000Y-98280000D01*
%TD*%
%TA.AperFunction,Conductor*%
%TO.N,GND*%
G36*
X179943039Y-90220185D02*
G01*
X179988794Y-90272989D01*
X180000000Y-90324500D01*
X180000000Y-100833197D01*
X179999385Y-100845535D01*
X179989048Y-100948905D01*
X179991727Y-101073079D01*
X179993514Y-101079166D01*
X179994977Y-101084146D01*
X180000000Y-101119081D01*
X180000000Y-102675500D01*
X179980315Y-102742539D01*
X179927511Y-102788294D01*
X179876000Y-102799500D01*
X145124000Y-102799500D01*
X145056961Y-102779815D01*
X145011206Y-102727011D01*
X145000000Y-102675500D01*
X145000000Y-101372500D01*
X145019685Y-101305461D01*
X145072489Y-101259706D01*
X145124000Y-101248500D01*
X151584706Y-101248500D01*
X151657976Y-101233925D01*
X151657977Y-101233925D01*
X151676419Y-101230256D01*
X151731247Y-101219351D01*
X151869284Y-101162174D01*
X151993515Y-101079166D01*
X153589165Y-99483516D01*
X153672173Y-99359285D01*
X153672174Y-99359284D01*
X153729351Y-99221246D01*
X153758500Y-99074706D01*
X153758500Y-98435290D01*
X175871500Y-98435290D01*
X175871500Y-98584709D01*
X175900647Y-98731239D01*
X175900649Y-98731247D01*
X175957825Y-98869282D01*
X176040835Y-98993517D01*
X176146482Y-99099164D01*
X176146485Y-99099166D01*
X176270716Y-99182174D01*
X176408753Y-99239351D01*
X176434106Y-99244393D01*
X176481970Y-99253915D01*
X176481997Y-99253919D01*
X176482024Y-99253925D01*
X176555294Y-99268500D01*
X176704706Y-99268500D01*
X176777976Y-99253925D01*
X176777977Y-99253925D01*
X176796419Y-99250256D01*
X176851247Y-99239351D01*
X176989284Y-99182174D01*
X177113515Y-99099166D01*
X177113518Y-99099163D01*
X177137863Y-99074819D01*
X177199186Y-99041334D01*
X177225544Y-99038500D01*
X178474708Y-99038500D01*
X178573292Y-99018889D01*
X178621246Y-99009351D01*
X178759284Y-98952174D01*
X178883516Y-98869165D01*
X178989165Y-98763516D01*
X179072174Y-98639284D01*
X179129351Y-98501246D01*
X179158500Y-98354706D01*
X179158500Y-98205294D01*
X179158500Y-98205291D01*
X179129352Y-98058759D01*
X179129351Y-98058758D01*
X179129351Y-98058754D01*
X179096462Y-97979352D01*
X179072177Y-97920722D01*
X179072170Y-97920709D01*
X178989165Y-97796484D01*
X178989162Y-97796480D01*
X178883519Y-97690837D01*
X178883515Y-97690834D01*
X178759290Y-97607829D01*
X178759277Y-97607822D01*
X178621250Y-97550650D01*
X178621240Y-97550647D01*
X178474708Y-97521500D01*
X178474706Y-97521500D01*
X176785294Y-97521500D01*
X176785290Y-97521500D01*
X176712024Y-97536074D01*
X176638760Y-97550647D01*
X176638748Y-97550650D01*
X176500721Y-97607822D01*
X176500708Y-97607829D01*
X176376485Y-97690833D01*
X176376481Y-97690836D01*
X176040835Y-98026482D01*
X175957825Y-98150717D01*
X175900649Y-98288752D01*
X175900647Y-98288760D01*
X175871500Y-98435290D01*
X153758500Y-98435290D01*
X153758500Y-97390543D01*
X153778185Y-97323504D01*
X153794819Y-97302862D01*
X153922391Y-97175290D01*
X159241500Y-97175290D01*
X159241500Y-97324709D01*
X159270647Y-97471239D01*
X159270649Y-97471247D01*
X159327825Y-97609282D01*
X159410835Y-97733517D01*
X159516482Y-97839164D01*
X159516485Y-97839166D01*
X159640716Y-97922174D01*
X159778753Y-97979351D01*
X159804106Y-97984393D01*
X159851970Y-97993915D01*
X159851997Y-97993919D01*
X159852024Y-97993925D01*
X159925294Y-98008500D01*
X160074706Y-98008500D01*
X160147976Y-97993925D01*
X160147977Y-97993925D01*
X160166419Y-97990256D01*
X160221247Y-97979351D01*
X160359284Y-97922174D01*
X160483515Y-97839166D01*
X160777862Y-97544819D01*
X160839185Y-97511334D01*
X160865543Y-97508500D01*
X164324708Y-97508500D01*
X164423292Y-97488889D01*
X164471246Y-97479351D01*
X164609284Y-97422174D01*
X164733516Y-97339165D01*
X164839165Y-97233516D01*
X164922174Y-97109284D01*
X164979351Y-96971246D01*
X165008500Y-96824706D01*
X165008500Y-96675294D01*
X165008500Y-96675291D01*
X164979352Y-96528759D01*
X164979351Y-96528758D01*
X164979351Y-96528754D01*
X164979349Y-96528749D01*
X164922177Y-96390722D01*
X164922170Y-96390709D01*
X164839165Y-96266484D01*
X164839162Y-96266480D01*
X164733519Y-96160837D01*
X164733515Y-96160834D01*
X164609290Y-96077829D01*
X164609277Y-96077822D01*
X164471250Y-96020650D01*
X164471240Y-96020647D01*
X164324708Y-95991500D01*
X164324706Y-95991500D01*
X160425294Y-95991500D01*
X160425292Y-95991500D01*
X160278759Y-96020647D01*
X160278749Y-96020650D01*
X160140719Y-96077823D01*
X160016482Y-96160835D01*
X159410835Y-96766482D01*
X159327825Y-96890717D01*
X159270649Y-97028752D01*
X159270647Y-97028760D01*
X159241500Y-97175290D01*
X153922391Y-97175290D01*
X154549163Y-96548518D01*
X154549166Y-96548515D01*
X154632174Y-96424285D01*
X154689351Y-96286247D01*
X154697654Y-96244499D01*
X154703925Y-96212979D01*
X154703925Y-96212976D01*
X154718500Y-96139706D01*
X154718500Y-95990294D01*
X154718500Y-95990291D01*
X154689352Y-95843759D01*
X154689351Y-95843758D01*
X154689351Y-95843754D01*
X154689349Y-95843749D01*
X154632177Y-95705722D01*
X154632170Y-95705709D01*
X154549165Y-95581484D01*
X154549162Y-95581480D01*
X154443519Y-95475837D01*
X154443515Y-95475834D01*
X154319290Y-95392829D01*
X154319281Y-95392824D01*
X154181247Y-95335649D01*
X154181239Y-95335647D01*
X154107976Y-95321074D01*
X154034709Y-95306500D01*
X154034706Y-95306500D01*
X153885294Y-95306500D01*
X153885290Y-95306500D01*
X153812024Y-95321074D01*
X153738760Y-95335647D01*
X153738748Y-95335650D01*
X153600721Y-95392822D01*
X153600708Y-95392829D01*
X153476485Y-95475833D01*
X153476481Y-95475836D01*
X152410835Y-96541482D01*
X152327825Y-96665717D01*
X152286087Y-96766482D01*
X152270649Y-96803753D01*
X152266481Y-96824706D01*
X152241500Y-96950291D01*
X152241500Y-98634457D01*
X152221815Y-98701496D01*
X152205181Y-98722138D01*
X151232138Y-99695181D01*
X151170815Y-99728666D01*
X151144457Y-99731500D01*
X145124000Y-99731500D01*
X145056961Y-99711815D01*
X145011206Y-99659011D01*
X145000000Y-99607500D01*
X145000000Y-97355454D01*
X145019685Y-97288415D01*
X145024725Y-97281154D01*
X145050889Y-97246204D01*
X145101989Y-97109201D01*
X145105591Y-97075692D01*
X145108499Y-97048654D01*
X145108500Y-97048637D01*
X145108500Y-95951362D01*
X145108499Y-95951345D01*
X145105157Y-95920270D01*
X145101989Y-95890799D01*
X145050889Y-95753796D01*
X145024732Y-95718855D01*
X145000316Y-95653392D01*
X145000000Y-95644545D01*
X145000000Y-95129125D01*
X145004191Y-95103868D01*
X145003010Y-95103646D01*
X145004649Y-95094930D01*
X145004649Y-95094928D01*
X145004650Y-95094926D01*
X145010952Y-94948905D01*
X145000615Y-94845535D01*
X145000000Y-94833197D01*
X145000000Y-90324500D01*
X145019685Y-90257461D01*
X145072489Y-90211706D01*
X145124000Y-90200500D01*
X179876000Y-90200500D01*
X179943039Y-90220185D01*
G37*
%TD.AperFunction*%
%TD*%
M02*
