%TF.GenerationSoftware,KiCad,Pcbnew,9.0.1*%
%TF.CreationDate,2025-04-30T15:38:21+02:00*%
%TF.ProjectId,board,626f6172-642e-46b6-9963-61645f706362,rev?*%
%TF.SameCoordinates,Original*%
%TF.FileFunction,Legend,Top*%
%TF.FilePolarity,Positive*%
%FSLAX46Y46*%
G04 Gerber Fmt 4.6, Leading zero omitted, Abs format (unit mm)*
G04 Created by KiCad (PCBNEW 9.0.1) date 2025-04-30 15:38:21*
%MOMM*%
%LPD*%
G01*
G04 APERTURE LIST*
G04 Aperture macros list*
%AMRoundRect*
0 Rectangle with rounded corners*
0 $1 Rounding radius*
0 $2 $3 $4 $5 $6 $7 $8 $9 X,Y pos of 4 corners*
0 Add a 4 corners polygon primitive as box body*
4,1,4,$2,$3,$4,$5,$6,$7,$8,$9,$2,$3,0*
0 Add four circle primitives for the rounded corners*
1,1,$1+$1,$2,$3*
1,1,$1+$1,$4,$5*
1,1,$1+$1,$6,$7*
1,1,$1+$1,$8,$9*
0 Add four rect primitives between the rounded corners*
20,1,$1+$1,$2,$3,$4,$5,0*
20,1,$1+$1,$4,$5,$6,$7,0*
20,1,$1+$1,$6,$7,$8,$9,0*
20,1,$1+$1,$8,$9,$2,$3,0*%
G04 Aperture macros list end*
%ADD10C,0.150000*%
%ADD11C,0.120000*%
%ADD12C,0.153000*%
%ADD13C,0.010000*%
%ADD14RoundRect,0.150000X-0.587500X-0.150000X0.587500X-0.150000X0.587500X0.150000X-0.587500X0.150000X0*%
%ADD15R,3.500000X1.000000*%
%ADD16RoundRect,0.150000X-0.825000X-0.150000X0.825000X-0.150000X0.825000X0.150000X-0.825000X0.150000X0*%
%ADD17RoundRect,0.250000X-0.650000X1.000000X-0.650000X-1.000000X0.650000X-1.000000X0.650000X1.000000X0*%
%ADD18RoundRect,0.250000X-0.650000X0.325000X-0.650000X-0.325000X0.650000X-0.325000X0.650000X0.325000X0*%
%ADD19R,4.000000X3.500000*%
%ADD20RoundRect,0.250000X0.362500X1.425000X-0.362500X1.425000X-0.362500X-1.425000X0.362500X-1.425000X0*%
%ADD21RoundRect,0.250000X0.650000X-0.325000X0.650000X0.325000X-0.650000X0.325000X-0.650000X-0.325000X0*%
G04 APERTURE END LIST*
D10*
X178879636Y-102569819D02*
X178784398Y-102522200D01*
X178784398Y-102522200D02*
X178736779Y-102474580D01*
X178736779Y-102474580D02*
X178689160Y-102379342D01*
X178689160Y-102379342D02*
X178689160Y-102093628D01*
X178689160Y-102093628D02*
X178736779Y-101998390D01*
X178736779Y-101998390D02*
X178784398Y-101950771D01*
X178784398Y-101950771D02*
X178879636Y-101903152D01*
X178879636Y-101903152D02*
X179022493Y-101903152D01*
X179022493Y-101903152D02*
X179117731Y-101950771D01*
X179117731Y-101950771D02*
X179165350Y-101998390D01*
X179165350Y-101998390D02*
X179212969Y-102093628D01*
X179212969Y-102093628D02*
X179212969Y-102379342D01*
X179212969Y-102379342D02*
X179165350Y-102474580D01*
X179165350Y-102474580D02*
X179117731Y-102522200D01*
X179117731Y-102522200D02*
X179022493Y-102569819D01*
X179022493Y-102569819D02*
X178879636Y-102569819D01*
X179593922Y-102522200D02*
X179689160Y-102569819D01*
X179689160Y-102569819D02*
X179879636Y-102569819D01*
X179879636Y-102569819D02*
X179974874Y-102522200D01*
X179974874Y-102522200D02*
X180022493Y-102426961D01*
X180022493Y-102426961D02*
X180022493Y-102379342D01*
X180022493Y-102379342D02*
X179974874Y-102284104D01*
X179974874Y-102284104D02*
X179879636Y-102236485D01*
X179879636Y-102236485D02*
X179736779Y-102236485D01*
X179736779Y-102236485D02*
X179641541Y-102188866D01*
X179641541Y-102188866D02*
X179593922Y-102093628D01*
X179593922Y-102093628D02*
X179593922Y-102046009D01*
X179593922Y-102046009D02*
X179641541Y-101950771D01*
X179641541Y-101950771D02*
X179736779Y-101903152D01*
X179736779Y-101903152D02*
X179879636Y-101903152D01*
X179879636Y-101903152D02*
X179974874Y-101950771D01*
X180308208Y-101903152D02*
X180689160Y-101903152D01*
X180451065Y-102569819D02*
X180451065Y-101712676D01*
X180451065Y-101712676D02*
X180498684Y-101617438D01*
X180498684Y-101617438D02*
X180593922Y-101569819D01*
X180593922Y-101569819D02*
X180689160Y-101569819D01*
X181022494Y-102474580D02*
X181070113Y-102522200D01*
X181070113Y-102522200D02*
X181022494Y-102569819D01*
X181022494Y-102569819D02*
X180974875Y-102522200D01*
X180974875Y-102522200D02*
X181022494Y-102474580D01*
X181022494Y-102474580D02*
X181022494Y-102569819D01*
X181689160Y-101569819D02*
X181784398Y-101569819D01*
X181784398Y-101569819D02*
X181879636Y-101617438D01*
X181879636Y-101617438D02*
X181927255Y-101665057D01*
X181927255Y-101665057D02*
X181974874Y-101760295D01*
X181974874Y-101760295D02*
X182022493Y-101950771D01*
X182022493Y-101950771D02*
X182022493Y-102188866D01*
X182022493Y-102188866D02*
X181974874Y-102379342D01*
X181974874Y-102379342D02*
X181927255Y-102474580D01*
X181927255Y-102474580D02*
X181879636Y-102522200D01*
X181879636Y-102522200D02*
X181784398Y-102569819D01*
X181784398Y-102569819D02*
X181689160Y-102569819D01*
X181689160Y-102569819D02*
X181593922Y-102522200D01*
X181593922Y-102522200D02*
X181546303Y-102474580D01*
X181546303Y-102474580D02*
X181498684Y-102379342D01*
X181498684Y-102379342D02*
X181451065Y-102188866D01*
X181451065Y-102188866D02*
X181451065Y-101950771D01*
X181451065Y-101950771D02*
X181498684Y-101760295D01*
X181498684Y-101760295D02*
X181546303Y-101665057D01*
X181546303Y-101665057D02*
X181593922Y-101617438D01*
X181593922Y-101617438D02*
X181689160Y-101569819D01*
X182641541Y-101569819D02*
X182736779Y-101569819D01*
X182736779Y-101569819D02*
X182832017Y-101617438D01*
X182832017Y-101617438D02*
X182879636Y-101665057D01*
X182879636Y-101665057D02*
X182927255Y-101760295D01*
X182927255Y-101760295D02*
X182974874Y-101950771D01*
X182974874Y-101950771D02*
X182974874Y-102188866D01*
X182974874Y-102188866D02*
X182927255Y-102379342D01*
X182927255Y-102379342D02*
X182879636Y-102474580D01*
X182879636Y-102474580D02*
X182832017Y-102522200D01*
X182832017Y-102522200D02*
X182736779Y-102569819D01*
X182736779Y-102569819D02*
X182641541Y-102569819D01*
X182641541Y-102569819D02*
X182546303Y-102522200D01*
X182546303Y-102522200D02*
X182498684Y-102474580D01*
X182498684Y-102474580D02*
X182451065Y-102379342D01*
X182451065Y-102379342D02*
X182403446Y-102188866D01*
X182403446Y-102188866D02*
X182403446Y-101950771D01*
X182403446Y-101950771D02*
X182451065Y-101760295D01*
X182451065Y-101760295D02*
X182498684Y-101665057D01*
X182498684Y-101665057D02*
X182546303Y-101617438D01*
X182546303Y-101617438D02*
X182641541Y-101569819D01*
X183593922Y-101569819D02*
X183689160Y-101569819D01*
X183689160Y-101569819D02*
X183784398Y-101617438D01*
X183784398Y-101617438D02*
X183832017Y-101665057D01*
X183832017Y-101665057D02*
X183879636Y-101760295D01*
X183879636Y-101760295D02*
X183927255Y-101950771D01*
X183927255Y-101950771D02*
X183927255Y-102188866D01*
X183927255Y-102188866D02*
X183879636Y-102379342D01*
X183879636Y-102379342D02*
X183832017Y-102474580D01*
X183832017Y-102474580D02*
X183784398Y-102522200D01*
X183784398Y-102522200D02*
X183689160Y-102569819D01*
X183689160Y-102569819D02*
X183593922Y-102569819D01*
X183593922Y-102569819D02*
X183498684Y-102522200D01*
X183498684Y-102522200D02*
X183451065Y-102474580D01*
X183451065Y-102474580D02*
X183403446Y-102379342D01*
X183403446Y-102379342D02*
X183355827Y-102188866D01*
X183355827Y-102188866D02*
X183355827Y-101950771D01*
X183355827Y-101950771D02*
X183403446Y-101760295D01*
X183403446Y-101760295D02*
X183451065Y-101665057D01*
X183451065Y-101665057D02*
X183498684Y-101617438D01*
X183498684Y-101617438D02*
X183593922Y-101569819D01*
X141379636Y-102469819D02*
X141284398Y-102422200D01*
X141284398Y-102422200D02*
X141236779Y-102374580D01*
X141236779Y-102374580D02*
X141189160Y-102279342D01*
X141189160Y-102279342D02*
X141189160Y-101993628D01*
X141189160Y-101993628D02*
X141236779Y-101898390D01*
X141236779Y-101898390D02*
X141284398Y-101850771D01*
X141284398Y-101850771D02*
X141379636Y-101803152D01*
X141379636Y-101803152D02*
X141522493Y-101803152D01*
X141522493Y-101803152D02*
X141617731Y-101850771D01*
X141617731Y-101850771D02*
X141665350Y-101898390D01*
X141665350Y-101898390D02*
X141712969Y-101993628D01*
X141712969Y-101993628D02*
X141712969Y-102279342D01*
X141712969Y-102279342D02*
X141665350Y-102374580D01*
X141665350Y-102374580D02*
X141617731Y-102422200D01*
X141617731Y-102422200D02*
X141522493Y-102469819D01*
X141522493Y-102469819D02*
X141379636Y-102469819D01*
X142093922Y-102422200D02*
X142189160Y-102469819D01*
X142189160Y-102469819D02*
X142379636Y-102469819D01*
X142379636Y-102469819D02*
X142474874Y-102422200D01*
X142474874Y-102422200D02*
X142522493Y-102326961D01*
X142522493Y-102326961D02*
X142522493Y-102279342D01*
X142522493Y-102279342D02*
X142474874Y-102184104D01*
X142474874Y-102184104D02*
X142379636Y-102136485D01*
X142379636Y-102136485D02*
X142236779Y-102136485D01*
X142236779Y-102136485D02*
X142141541Y-102088866D01*
X142141541Y-102088866D02*
X142093922Y-101993628D01*
X142093922Y-101993628D02*
X142093922Y-101946009D01*
X142093922Y-101946009D02*
X142141541Y-101850771D01*
X142141541Y-101850771D02*
X142236779Y-101803152D01*
X142236779Y-101803152D02*
X142379636Y-101803152D01*
X142379636Y-101803152D02*
X142474874Y-101850771D01*
X142808208Y-101803152D02*
X143189160Y-101803152D01*
X142951065Y-102469819D02*
X142951065Y-101612676D01*
X142951065Y-101612676D02*
X142998684Y-101517438D01*
X142998684Y-101517438D02*
X143093922Y-101469819D01*
X143093922Y-101469819D02*
X143189160Y-101469819D01*
X143522494Y-102374580D02*
X143570113Y-102422200D01*
X143570113Y-102422200D02*
X143522494Y-102469819D01*
X143522494Y-102469819D02*
X143474875Y-102422200D01*
X143474875Y-102422200D02*
X143522494Y-102374580D01*
X143522494Y-102374580D02*
X143522494Y-102469819D01*
X144189160Y-101469819D02*
X144284398Y-101469819D01*
X144284398Y-101469819D02*
X144379636Y-101517438D01*
X144379636Y-101517438D02*
X144427255Y-101565057D01*
X144427255Y-101565057D02*
X144474874Y-101660295D01*
X144474874Y-101660295D02*
X144522493Y-101850771D01*
X144522493Y-101850771D02*
X144522493Y-102088866D01*
X144522493Y-102088866D02*
X144474874Y-102279342D01*
X144474874Y-102279342D02*
X144427255Y-102374580D01*
X144427255Y-102374580D02*
X144379636Y-102422200D01*
X144379636Y-102422200D02*
X144284398Y-102469819D01*
X144284398Y-102469819D02*
X144189160Y-102469819D01*
X144189160Y-102469819D02*
X144093922Y-102422200D01*
X144093922Y-102422200D02*
X144046303Y-102374580D01*
X144046303Y-102374580D02*
X143998684Y-102279342D01*
X143998684Y-102279342D02*
X143951065Y-102088866D01*
X143951065Y-102088866D02*
X143951065Y-101850771D01*
X143951065Y-101850771D02*
X143998684Y-101660295D01*
X143998684Y-101660295D02*
X144046303Y-101565057D01*
X144046303Y-101565057D02*
X144093922Y-101517438D01*
X144093922Y-101517438D02*
X144189160Y-101469819D01*
X145141541Y-101469819D02*
X145236779Y-101469819D01*
X145236779Y-101469819D02*
X145332017Y-101517438D01*
X145332017Y-101517438D02*
X145379636Y-101565057D01*
X145379636Y-101565057D02*
X145427255Y-101660295D01*
X145427255Y-101660295D02*
X145474874Y-101850771D01*
X145474874Y-101850771D02*
X145474874Y-102088866D01*
X145474874Y-102088866D02*
X145427255Y-102279342D01*
X145427255Y-102279342D02*
X145379636Y-102374580D01*
X145379636Y-102374580D02*
X145332017Y-102422200D01*
X145332017Y-102422200D02*
X145236779Y-102469819D01*
X145236779Y-102469819D02*
X145141541Y-102469819D01*
X145141541Y-102469819D02*
X145046303Y-102422200D01*
X145046303Y-102422200D02*
X144998684Y-102374580D01*
X144998684Y-102374580D02*
X144951065Y-102279342D01*
X144951065Y-102279342D02*
X144903446Y-102088866D01*
X144903446Y-102088866D02*
X144903446Y-101850771D01*
X144903446Y-101850771D02*
X144951065Y-101660295D01*
X144951065Y-101660295D02*
X144998684Y-101565057D01*
X144998684Y-101565057D02*
X145046303Y-101517438D01*
X145046303Y-101517438D02*
X145141541Y-101469819D01*
X146093922Y-101469819D02*
X146189160Y-101469819D01*
X146189160Y-101469819D02*
X146284398Y-101517438D01*
X146284398Y-101517438D02*
X146332017Y-101565057D01*
X146332017Y-101565057D02*
X146379636Y-101660295D01*
X146379636Y-101660295D02*
X146427255Y-101850771D01*
X146427255Y-101850771D02*
X146427255Y-102088866D01*
X146427255Y-102088866D02*
X146379636Y-102279342D01*
X146379636Y-102279342D02*
X146332017Y-102374580D01*
X146332017Y-102374580D02*
X146284398Y-102422200D01*
X146284398Y-102422200D02*
X146189160Y-102469819D01*
X146189160Y-102469819D02*
X146093922Y-102469819D01*
X146093922Y-102469819D02*
X145998684Y-102422200D01*
X145998684Y-102422200D02*
X145951065Y-102374580D01*
X145951065Y-102374580D02*
X145903446Y-102279342D01*
X145903446Y-102279342D02*
X145855827Y-102088866D01*
X145855827Y-102088866D02*
X145855827Y-101850771D01*
X145855827Y-101850771D02*
X145903446Y-101660295D01*
X145903446Y-101660295D02*
X145951065Y-101565057D01*
X145951065Y-101565057D02*
X145998684Y-101517438D01*
X145998684Y-101517438D02*
X146093922Y-101469819D01*
X148679636Y-102369819D02*
X148584398Y-102322200D01*
X148584398Y-102322200D02*
X148536779Y-102274580D01*
X148536779Y-102274580D02*
X148489160Y-102179342D01*
X148489160Y-102179342D02*
X148489160Y-101893628D01*
X148489160Y-101893628D02*
X148536779Y-101798390D01*
X148536779Y-101798390D02*
X148584398Y-101750771D01*
X148584398Y-101750771D02*
X148679636Y-101703152D01*
X148679636Y-101703152D02*
X148822493Y-101703152D01*
X148822493Y-101703152D02*
X148917731Y-101750771D01*
X148917731Y-101750771D02*
X148965350Y-101798390D01*
X148965350Y-101798390D02*
X149012969Y-101893628D01*
X149012969Y-101893628D02*
X149012969Y-102179342D01*
X149012969Y-102179342D02*
X148965350Y-102274580D01*
X148965350Y-102274580D02*
X148917731Y-102322200D01*
X148917731Y-102322200D02*
X148822493Y-102369819D01*
X148822493Y-102369819D02*
X148679636Y-102369819D01*
X149393922Y-102322200D02*
X149489160Y-102369819D01*
X149489160Y-102369819D02*
X149679636Y-102369819D01*
X149679636Y-102369819D02*
X149774874Y-102322200D01*
X149774874Y-102322200D02*
X149822493Y-102226961D01*
X149822493Y-102226961D02*
X149822493Y-102179342D01*
X149822493Y-102179342D02*
X149774874Y-102084104D01*
X149774874Y-102084104D02*
X149679636Y-102036485D01*
X149679636Y-102036485D02*
X149536779Y-102036485D01*
X149536779Y-102036485D02*
X149441541Y-101988866D01*
X149441541Y-101988866D02*
X149393922Y-101893628D01*
X149393922Y-101893628D02*
X149393922Y-101846009D01*
X149393922Y-101846009D02*
X149441541Y-101750771D01*
X149441541Y-101750771D02*
X149536779Y-101703152D01*
X149536779Y-101703152D02*
X149679636Y-101703152D01*
X149679636Y-101703152D02*
X149774874Y-101750771D01*
X150108208Y-101703152D02*
X150489160Y-101703152D01*
X150251065Y-102369819D02*
X150251065Y-101512676D01*
X150251065Y-101512676D02*
X150298684Y-101417438D01*
X150298684Y-101417438D02*
X150393922Y-101369819D01*
X150393922Y-101369819D02*
X150489160Y-101369819D01*
X150822494Y-102274580D02*
X150870113Y-102322200D01*
X150870113Y-102322200D02*
X150822494Y-102369819D01*
X150822494Y-102369819D02*
X150774875Y-102322200D01*
X150774875Y-102322200D02*
X150822494Y-102274580D01*
X150822494Y-102274580D02*
X150822494Y-102369819D01*
X151298684Y-102369819D02*
X151298684Y-101369819D01*
X151298684Y-101750771D02*
X151393922Y-101703152D01*
X151393922Y-101703152D02*
X151584398Y-101703152D01*
X151584398Y-101703152D02*
X151679636Y-101750771D01*
X151679636Y-101750771D02*
X151727255Y-101798390D01*
X151727255Y-101798390D02*
X151774874Y-101893628D01*
X151774874Y-101893628D02*
X151774874Y-102179342D01*
X151774874Y-102179342D02*
X151727255Y-102274580D01*
X151727255Y-102274580D02*
X151679636Y-102322200D01*
X151679636Y-102322200D02*
X151584398Y-102369819D01*
X151584398Y-102369819D02*
X151393922Y-102369819D01*
X151393922Y-102369819D02*
X151298684Y-102322200D01*
X152727255Y-102369819D02*
X152155827Y-102369819D01*
X152441541Y-102369819D02*
X152441541Y-101369819D01*
X152441541Y-101369819D02*
X152346303Y-101512676D01*
X152346303Y-101512676D02*
X152251065Y-101607914D01*
X152251065Y-101607914D02*
X152155827Y-101655533D01*
X153584398Y-101369819D02*
X153393922Y-101369819D01*
X153393922Y-101369819D02*
X153298684Y-101417438D01*
X153298684Y-101417438D02*
X153251065Y-101465057D01*
X153251065Y-101465057D02*
X153155827Y-101607914D01*
X153155827Y-101607914D02*
X153108208Y-101798390D01*
X153108208Y-101798390D02*
X153108208Y-102179342D01*
X153108208Y-102179342D02*
X153155827Y-102274580D01*
X153155827Y-102274580D02*
X153203446Y-102322200D01*
X153203446Y-102322200D02*
X153298684Y-102369819D01*
X153298684Y-102369819D02*
X153489160Y-102369819D01*
X153489160Y-102369819D02*
X153584398Y-102322200D01*
X153584398Y-102322200D02*
X153632017Y-102274580D01*
X153632017Y-102274580D02*
X153679636Y-102179342D01*
X153679636Y-102179342D02*
X153679636Y-101941247D01*
X153679636Y-101941247D02*
X153632017Y-101846009D01*
X153632017Y-101846009D02*
X153584398Y-101798390D01*
X153584398Y-101798390D02*
X153489160Y-101750771D01*
X153489160Y-101750771D02*
X153298684Y-101750771D01*
X153298684Y-101750771D02*
X153203446Y-101798390D01*
X153203446Y-101798390D02*
X153155827Y-101846009D01*
X153155827Y-101846009D02*
X153108208Y-101941247D01*
X154012970Y-101369819D02*
X154679636Y-101369819D01*
X154679636Y-101369819D02*
X154251065Y-102369819D01*
X155060589Y-102274580D02*
X155108208Y-102322200D01*
X155108208Y-102322200D02*
X155060589Y-102369819D01*
X155060589Y-102369819D02*
X155012970Y-102322200D01*
X155012970Y-102322200D02*
X155060589Y-102274580D01*
X155060589Y-102274580D02*
X155060589Y-102369819D01*
X155441541Y-101703152D02*
X155679636Y-102369819D01*
X155679636Y-102369819D02*
X155917731Y-101703152D01*
X156822493Y-102369819D02*
X156251065Y-102369819D01*
X156536779Y-102369819D02*
X156536779Y-101369819D01*
X156536779Y-101369819D02*
X156441541Y-101512676D01*
X156441541Y-101512676D02*
X156346303Y-101607914D01*
X156346303Y-101607914D02*
X156251065Y-101655533D01*
X157251065Y-102274580D02*
X157298684Y-102322200D01*
X157298684Y-102322200D02*
X157251065Y-102369819D01*
X157251065Y-102369819D02*
X157203446Y-102322200D01*
X157203446Y-102322200D02*
X157251065Y-102274580D01*
X157251065Y-102274580D02*
X157251065Y-102369819D01*
X157917731Y-101369819D02*
X158012969Y-101369819D01*
X158012969Y-101369819D02*
X158108207Y-101417438D01*
X158108207Y-101417438D02*
X158155826Y-101465057D01*
X158155826Y-101465057D02*
X158203445Y-101560295D01*
X158203445Y-101560295D02*
X158251064Y-101750771D01*
X158251064Y-101750771D02*
X158251064Y-101988866D01*
X158251064Y-101988866D02*
X158203445Y-102179342D01*
X158203445Y-102179342D02*
X158155826Y-102274580D01*
X158155826Y-102274580D02*
X158108207Y-102322200D01*
X158108207Y-102322200D02*
X158012969Y-102369819D01*
X158012969Y-102369819D02*
X157917731Y-102369819D01*
X157917731Y-102369819D02*
X157822493Y-102322200D01*
X157822493Y-102322200D02*
X157774874Y-102274580D01*
X157774874Y-102274580D02*
X157727255Y-102179342D01*
X157727255Y-102179342D02*
X157679636Y-101988866D01*
X157679636Y-101988866D02*
X157679636Y-101750771D01*
X157679636Y-101750771D02*
X157727255Y-101560295D01*
X157727255Y-101560295D02*
X157774874Y-101465057D01*
X157774874Y-101465057D02*
X157822493Y-101417438D01*
X157822493Y-101417438D02*
X157917731Y-101369819D01*
X158504761Y-100850057D02*
X158409523Y-100802438D01*
X158409523Y-100802438D02*
X158314285Y-100707200D01*
X158314285Y-100707200D02*
X158171428Y-100564342D01*
X158171428Y-100564342D02*
X158076190Y-100516723D01*
X158076190Y-100516723D02*
X157980952Y-100516723D01*
X158028571Y-100754819D02*
X157933333Y-100707200D01*
X157933333Y-100707200D02*
X157838095Y-100611961D01*
X157838095Y-100611961D02*
X157790476Y-100421485D01*
X157790476Y-100421485D02*
X157790476Y-100088152D01*
X157790476Y-100088152D02*
X157838095Y-99897676D01*
X157838095Y-99897676D02*
X157933333Y-99802438D01*
X157933333Y-99802438D02*
X158028571Y-99754819D01*
X158028571Y-99754819D02*
X158219047Y-99754819D01*
X158219047Y-99754819D02*
X158314285Y-99802438D01*
X158314285Y-99802438D02*
X158409523Y-99897676D01*
X158409523Y-99897676D02*
X158457142Y-100088152D01*
X158457142Y-100088152D02*
X158457142Y-100421485D01*
X158457142Y-100421485D02*
X158409523Y-100611961D01*
X158409523Y-100611961D02*
X158314285Y-100707200D01*
X158314285Y-100707200D02*
X158219047Y-100754819D01*
X158219047Y-100754819D02*
X158028571Y-100754819D01*
X159361904Y-99754819D02*
X158885714Y-99754819D01*
X158885714Y-99754819D02*
X158838095Y-100231009D01*
X158838095Y-100231009D02*
X158885714Y-100183390D01*
X158885714Y-100183390D02*
X158980952Y-100135771D01*
X158980952Y-100135771D02*
X159219047Y-100135771D01*
X159219047Y-100135771D02*
X159314285Y-100183390D01*
X159314285Y-100183390D02*
X159361904Y-100231009D01*
X159361904Y-100231009D02*
X159409523Y-100326247D01*
X159409523Y-100326247D02*
X159409523Y-100564342D01*
X159409523Y-100564342D02*
X159361904Y-100659580D01*
X159361904Y-100659580D02*
X159314285Y-100707200D01*
X159314285Y-100707200D02*
X159219047Y-100754819D01*
X159219047Y-100754819D02*
X158980952Y-100754819D01*
X158980952Y-100754819D02*
X158885714Y-100707200D01*
X158885714Y-100707200D02*
X158838095Y-100659580D01*
X155538095Y-99354819D02*
X155538095Y-100164342D01*
X155538095Y-100164342D02*
X155585714Y-100259580D01*
X155585714Y-100259580D02*
X155633333Y-100307200D01*
X155633333Y-100307200D02*
X155728571Y-100354819D01*
X155728571Y-100354819D02*
X155919047Y-100354819D01*
X155919047Y-100354819D02*
X156014285Y-100307200D01*
X156014285Y-100307200D02*
X156061904Y-100259580D01*
X156061904Y-100259580D02*
X156109523Y-100164342D01*
X156109523Y-100164342D02*
X156109523Y-99354819D01*
X157061904Y-99354819D02*
X156585714Y-99354819D01*
X156585714Y-99354819D02*
X156538095Y-99831009D01*
X156538095Y-99831009D02*
X156585714Y-99783390D01*
X156585714Y-99783390D02*
X156680952Y-99735771D01*
X156680952Y-99735771D02*
X156919047Y-99735771D01*
X156919047Y-99735771D02*
X157014285Y-99783390D01*
X157014285Y-99783390D02*
X157061904Y-99831009D01*
X157061904Y-99831009D02*
X157109523Y-99926247D01*
X157109523Y-99926247D02*
X157109523Y-100164342D01*
X157109523Y-100164342D02*
X157061904Y-100259580D01*
X157061904Y-100259580D02*
X157014285Y-100307200D01*
X157014285Y-100307200D02*
X156919047Y-100354819D01*
X156919047Y-100354819D02*
X156680952Y-100354819D01*
X156680952Y-100354819D02*
X156585714Y-100307200D01*
X156585714Y-100307200D02*
X156538095Y-100259580D01*
X178954819Y-99488094D02*
X177954819Y-99488094D01*
X177954819Y-99488094D02*
X177954819Y-99249999D01*
X177954819Y-99249999D02*
X178002438Y-99107142D01*
X178002438Y-99107142D02*
X178097676Y-99011904D01*
X178097676Y-99011904D02*
X178192914Y-98964285D01*
X178192914Y-98964285D02*
X178383390Y-98916666D01*
X178383390Y-98916666D02*
X178526247Y-98916666D01*
X178526247Y-98916666D02*
X178716723Y-98964285D01*
X178716723Y-98964285D02*
X178811961Y-99011904D01*
X178811961Y-99011904D02*
X178907200Y-99107142D01*
X178907200Y-99107142D02*
X178954819Y-99249999D01*
X178954819Y-99249999D02*
X178954819Y-99488094D01*
X177954819Y-98583332D02*
X177954819Y-97964285D01*
X177954819Y-97964285D02*
X178335771Y-98297618D01*
X178335771Y-98297618D02*
X178335771Y-98154761D01*
X178335771Y-98154761D02*
X178383390Y-98059523D01*
X178383390Y-98059523D02*
X178431009Y-98011904D01*
X178431009Y-98011904D02*
X178526247Y-97964285D01*
X178526247Y-97964285D02*
X178764342Y-97964285D01*
X178764342Y-97964285D02*
X178859580Y-98011904D01*
X178859580Y-98011904D02*
X178907200Y-98059523D01*
X178907200Y-98059523D02*
X178954819Y-98154761D01*
X178954819Y-98154761D02*
X178954819Y-98440475D01*
X178954819Y-98440475D02*
X178907200Y-98535713D01*
X178907200Y-98535713D02*
X178859580Y-98583332D01*
X154959580Y-97917857D02*
X155007200Y-97965476D01*
X155007200Y-97965476D02*
X155054819Y-98108333D01*
X155054819Y-98108333D02*
X155054819Y-98203571D01*
X155054819Y-98203571D02*
X155007200Y-98346428D01*
X155007200Y-98346428D02*
X154911961Y-98441666D01*
X154911961Y-98441666D02*
X154816723Y-98489285D01*
X154816723Y-98489285D02*
X154626247Y-98536904D01*
X154626247Y-98536904D02*
X154483390Y-98536904D01*
X154483390Y-98536904D02*
X154292914Y-98489285D01*
X154292914Y-98489285D02*
X154197676Y-98441666D01*
X154197676Y-98441666D02*
X154102438Y-98346428D01*
X154102438Y-98346428D02*
X154054819Y-98203571D01*
X154054819Y-98203571D02*
X154054819Y-98108333D01*
X154054819Y-98108333D02*
X154102438Y-97965476D01*
X154102438Y-97965476D02*
X154150057Y-97917857D01*
X155054819Y-96965476D02*
X155054819Y-97536904D01*
X155054819Y-97251190D02*
X154054819Y-97251190D01*
X154054819Y-97251190D02*
X154197676Y-97346428D01*
X154197676Y-97346428D02*
X154292914Y-97441666D01*
X154292914Y-97441666D02*
X154340533Y-97536904D01*
X154054819Y-96346428D02*
X154054819Y-96251190D01*
X154054819Y-96251190D02*
X154102438Y-96155952D01*
X154102438Y-96155952D02*
X154150057Y-96108333D01*
X154150057Y-96108333D02*
X154245295Y-96060714D01*
X154245295Y-96060714D02*
X154435771Y-96013095D01*
X154435771Y-96013095D02*
X154673866Y-96013095D01*
X154673866Y-96013095D02*
X154864342Y-96060714D01*
X154864342Y-96060714D02*
X154959580Y-96108333D01*
X154959580Y-96108333D02*
X155007200Y-96155952D01*
X155007200Y-96155952D02*
X155054819Y-96251190D01*
X155054819Y-96251190D02*
X155054819Y-96346428D01*
X155054819Y-96346428D02*
X155007200Y-96441666D01*
X155007200Y-96441666D02*
X154959580Y-96489285D01*
X154959580Y-96489285D02*
X154864342Y-96536904D01*
X154864342Y-96536904D02*
X154673866Y-96584523D01*
X154673866Y-96584523D02*
X154435771Y-96584523D01*
X154435771Y-96584523D02*
X154245295Y-96536904D01*
X154245295Y-96536904D02*
X154150057Y-96489285D01*
X154150057Y-96489285D02*
X154102438Y-96441666D01*
X154102438Y-96441666D02*
X154054819Y-96346428D01*
X173133333Y-102754819D02*
X172657143Y-102754819D01*
X172657143Y-102754819D02*
X172657143Y-101754819D01*
X173990476Y-102754819D02*
X173419048Y-102754819D01*
X173704762Y-102754819D02*
X173704762Y-101754819D01*
X173704762Y-101754819D02*
X173609524Y-101897676D01*
X173609524Y-101897676D02*
X173514286Y-101992914D01*
X173514286Y-101992914D02*
X173419048Y-102040533D01*
X153857142Y-91854819D02*
X153523809Y-91378628D01*
X153285714Y-91854819D02*
X153285714Y-90854819D01*
X153285714Y-90854819D02*
X153666666Y-90854819D01*
X153666666Y-90854819D02*
X153761904Y-90902438D01*
X153761904Y-90902438D02*
X153809523Y-90950057D01*
X153809523Y-90950057D02*
X153857142Y-91045295D01*
X153857142Y-91045295D02*
X153857142Y-91188152D01*
X153857142Y-91188152D02*
X153809523Y-91283390D01*
X153809523Y-91283390D02*
X153761904Y-91331009D01*
X153761904Y-91331009D02*
X153666666Y-91378628D01*
X153666666Y-91378628D02*
X153285714Y-91378628D01*
X154809523Y-91854819D02*
X154238095Y-91854819D01*
X154523809Y-91854819D02*
X154523809Y-90854819D01*
X154523809Y-90854819D02*
X154428571Y-90997676D01*
X154428571Y-90997676D02*
X154333333Y-91092914D01*
X154333333Y-91092914D02*
X154238095Y-91140533D01*
X155190476Y-90950057D02*
X155238095Y-90902438D01*
X155238095Y-90902438D02*
X155333333Y-90854819D01*
X155333333Y-90854819D02*
X155571428Y-90854819D01*
X155571428Y-90854819D02*
X155666666Y-90902438D01*
X155666666Y-90902438D02*
X155714285Y-90950057D01*
X155714285Y-90950057D02*
X155761904Y-91045295D01*
X155761904Y-91045295D02*
X155761904Y-91140533D01*
X155761904Y-91140533D02*
X155714285Y-91283390D01*
X155714285Y-91283390D02*
X155142857Y-91854819D01*
X155142857Y-91854819D02*
X155761904Y-91854819D01*
X177559580Y-92642857D02*
X177607200Y-92690476D01*
X177607200Y-92690476D02*
X177654819Y-92833333D01*
X177654819Y-92833333D02*
X177654819Y-92928571D01*
X177654819Y-92928571D02*
X177607200Y-93071428D01*
X177607200Y-93071428D02*
X177511961Y-93166666D01*
X177511961Y-93166666D02*
X177416723Y-93214285D01*
X177416723Y-93214285D02*
X177226247Y-93261904D01*
X177226247Y-93261904D02*
X177083390Y-93261904D01*
X177083390Y-93261904D02*
X176892914Y-93214285D01*
X176892914Y-93214285D02*
X176797676Y-93166666D01*
X176797676Y-93166666D02*
X176702438Y-93071428D01*
X176702438Y-93071428D02*
X176654819Y-92928571D01*
X176654819Y-92928571D02*
X176654819Y-92833333D01*
X176654819Y-92833333D02*
X176702438Y-92690476D01*
X176702438Y-92690476D02*
X176750057Y-92642857D01*
X177654819Y-91690476D02*
X177654819Y-92261904D01*
X177654819Y-91976190D02*
X176654819Y-91976190D01*
X176654819Y-91976190D02*
X176797676Y-92071428D01*
X176797676Y-92071428D02*
X176892914Y-92166666D01*
X176892914Y-92166666D02*
X176940533Y-92261904D01*
X176654819Y-90833333D02*
X176654819Y-91023809D01*
X176654819Y-91023809D02*
X176702438Y-91119047D01*
X176702438Y-91119047D02*
X176750057Y-91166666D01*
X176750057Y-91166666D02*
X176892914Y-91261904D01*
X176892914Y-91261904D02*
X177083390Y-91309523D01*
X177083390Y-91309523D02*
X177464342Y-91309523D01*
X177464342Y-91309523D02*
X177559580Y-91261904D01*
X177559580Y-91261904D02*
X177607200Y-91214285D01*
X177607200Y-91214285D02*
X177654819Y-91119047D01*
X177654819Y-91119047D02*
X177654819Y-90928571D01*
X177654819Y-90928571D02*
X177607200Y-90833333D01*
X177607200Y-90833333D02*
X177559580Y-90785714D01*
X177559580Y-90785714D02*
X177464342Y-90738095D01*
X177464342Y-90738095D02*
X177226247Y-90738095D01*
X177226247Y-90738095D02*
X177131009Y-90785714D01*
X177131009Y-90785714D02*
X177083390Y-90833333D01*
X177083390Y-90833333D02*
X177035771Y-90928571D01*
X177035771Y-90928571D02*
X177035771Y-91119047D01*
X177035771Y-91119047D02*
X177083390Y-91214285D01*
X177083390Y-91214285D02*
X177131009Y-91261904D01*
X177131009Y-91261904D02*
X177226247Y-91309523D01*
D11*
%TO.C,Q5*%
X161312500Y-99640000D02*
X160662500Y-99640000D01*
X161312500Y-99640000D02*
X161962500Y-99640000D01*
X161312500Y-102760000D02*
X160662500Y-102760000D01*
X161312500Y-102760000D02*
X161962500Y-102760000D01*
X160150000Y-99690000D02*
X159910000Y-99360000D01*
X160390000Y-99360000D01*
X160150000Y-99690000D01*
G36*
X160150000Y-99690000D02*
G01*
X159910000Y-99360000D01*
X160390000Y-99360000D01*
X160150000Y-99690000D01*
G37*
D12*
%TO.C,J2*%
X143850000Y-95300000D02*
X144050000Y-95500000D01*
X144050000Y-95500000D02*
X143323000Y-95500000D01*
X144050000Y-95500000D02*
X143850000Y-95700000D01*
D11*
%TO.C,U5*%
X159500000Y-94140000D02*
X157550000Y-94140000D01*
X159500000Y-94140000D02*
X161450000Y-94140000D01*
X159500000Y-99260000D02*
X157550000Y-99260000D01*
X159500000Y-99260000D02*
X161450000Y-99260000D01*
X156800000Y-94235000D02*
X156560000Y-93905000D01*
X157040000Y-93905000D01*
X156800000Y-94235000D01*
G36*
X156800000Y-94235000D02*
G01*
X156560000Y-93905000D01*
X157040000Y-93905000D01*
X156800000Y-94235000D01*
G37*
D12*
%TO.C,J1*%
X180900000Y-95500000D02*
X181627000Y-95500000D01*
X181427000Y-95700000D02*
X181627000Y-95500000D01*
X181627000Y-95500000D02*
X181427000Y-95300000D01*
D11*
%TO.C,D3*%
X174350000Y-95240000D02*
X174350000Y-100750000D01*
X177650000Y-95240000D02*
X174350000Y-95240000D01*
X177650000Y-95240000D02*
X177650000Y-100750000D01*
D13*
%TO.C,LOGO1*%
X149305814Y-90718931D02*
X149389635Y-91163555D01*
X149698920Y-91291053D01*
X150008206Y-91418551D01*
X150379246Y-91166246D01*
X150483157Y-91095996D01*
X150577087Y-91033272D01*
X150656652Y-90980938D01*
X150717470Y-90941857D01*
X150755157Y-90918893D01*
X150765421Y-90913942D01*
X150783910Y-90926676D01*
X150823420Y-90961882D01*
X150879522Y-91015062D01*
X150947787Y-91081718D01*
X151023786Y-91157354D01*
X151103092Y-91237472D01*
X151181275Y-91317574D01*
X151253907Y-91393164D01*
X151316559Y-91459745D01*
X151364803Y-91512818D01*
X151394210Y-91547887D01*
X151401241Y-91559623D01*
X151391123Y-91581260D01*
X151362759Y-91628662D01*
X151319129Y-91697193D01*
X151263218Y-91782215D01*
X151198006Y-91879093D01*
X151160219Y-91934350D01*
X151091343Y-92035248D01*
X151030140Y-92126299D01*
X150979578Y-92202970D01*
X150942628Y-92260728D01*
X150922258Y-92295043D01*
X150919197Y-92302254D01*
X150926136Y-92322748D01*
X150945051Y-92370513D01*
X150973087Y-92438832D01*
X151007391Y-92520989D01*
X151045109Y-92610270D01*
X151083387Y-92699958D01*
X151119370Y-92783338D01*
X151150206Y-92853694D01*
X151173039Y-92904310D01*
X151185017Y-92928471D01*
X151185724Y-92929422D01*
X151204531Y-92934036D01*
X151254618Y-92944328D01*
X151330793Y-92959287D01*
X151427865Y-92977901D01*
X151540643Y-92999159D01*
X151606442Y-93011418D01*
X151726950Y-93034362D01*
X151835797Y-93056195D01*
X151927476Y-93075722D01*
X151996481Y-93091748D01*
X152037304Y-93103079D01*
X152045511Y-93106674D01*
X152053548Y-93131006D01*
X152060033Y-93185959D01*
X152064970Y-93265108D01*
X152068364Y-93362026D01*
X152070218Y-93470287D01*
X152070538Y-93583465D01*
X152069327Y-93695135D01*
X152066590Y-93798868D01*
X152062331Y-93888241D01*
X152056555Y-93956826D01*
X152049267Y-93998197D01*
X152044895Y-94006810D01*
X152018764Y-94017133D01*
X151963393Y-94031892D01*
X151886107Y-94049352D01*
X151794230Y-94067780D01*
X151762158Y-94073741D01*
X151607524Y-94102066D01*
X151485375Y-94124876D01*
X151391673Y-94143080D01*
X151322384Y-94157583D01*
X151273471Y-94169292D01*
X151240897Y-94179115D01*
X151220628Y-94187956D01*
X151208626Y-94196724D01*
X151206947Y-94198457D01*
X151190184Y-94226371D01*
X151164614Y-94280695D01*
X151132788Y-94354777D01*
X151097260Y-94441965D01*
X151060583Y-94535608D01*
X151025311Y-94629052D01*
X150993996Y-94715647D01*
X150969193Y-94788740D01*
X150953454Y-94841678D01*
X150949332Y-94867811D01*
X150949676Y-94868726D01*
X150963641Y-94890086D01*
X150995322Y-94937084D01*
X151041391Y-95004827D01*
X151098518Y-95088423D01*
X151163373Y-95182982D01*
X151181843Y-95209854D01*
X151247699Y-95307275D01*
X151305650Y-95396163D01*
X151352538Y-95471412D01*
X151385207Y-95527920D01*
X151400500Y-95560581D01*
X151401241Y-95564593D01*
X151388392Y-95585684D01*
X151352888Y-95627464D01*
X151299293Y-95685445D01*
X151232171Y-95755135D01*
X151156087Y-95832045D01*
X151075604Y-95911683D01*
X150995287Y-95989561D01*
X150919699Y-96061186D01*
X150853405Y-96122070D01*
X150800969Y-96167721D01*
X150766955Y-96193650D01*
X150757545Y-96197883D01*
X150735643Y-96187912D01*
X150690800Y-96161020D01*
X150630321Y-96121736D01*
X150583789Y-96090117D01*
X150499475Y-96032098D01*
X150399626Y-95963784D01*
X150299473Y-95895579D01*
X150245627Y-95859075D01*
X150063371Y-95735800D01*
X149910381Y-95818520D01*
X149840682Y-95854759D01*
X149781414Y-95882926D01*
X149741311Y-95898991D01*
X149731103Y-95901226D01*
X149718829Y-95884722D01*
X149694613Y-95838082D01*
X149660263Y-95765609D01*
X149617588Y-95671606D01*
X149568394Y-95560374D01*
X149514490Y-95436215D01*
X149457684Y-95303432D01*
X149399782Y-95166327D01*
X149342593Y-95029202D01*
X149287924Y-94896358D01*
X149237584Y-94772098D01*
X149193380Y-94660725D01*
X149157119Y-94566539D01*
X149130609Y-94493844D01*
X149115658Y-94446941D01*
X149113254Y-94430833D01*
X149132311Y-94410286D01*
X149174036Y-94376933D01*
X149229706Y-94337702D01*
X149234378Y-94334599D01*
X149378264Y-94219423D01*
X149494283Y-94085053D01*
X149581430Y-93935784D01*
X149638699Y-93775913D01*
X149665086Y-93609737D01*
X149659585Y-93441552D01*
X149621190Y-93275655D01*
X149548895Y-93116342D01*
X149527626Y-93081487D01*
X149416996Y-92940737D01*
X149286302Y-92827714D01*
X149140064Y-92743003D01*
X148982808Y-92687194D01*
X148819057Y-92660874D01*
X148653333Y-92664630D01*
X148490162Y-92699050D01*
X148334065Y-92764723D01*
X148189567Y-92862235D01*
X148144869Y-92901813D01*
X148031112Y-93025703D01*
X147948218Y-93156124D01*
X147891356Y-93302315D01*
X147859687Y-93447088D01*
X147851869Y-93609860D01*
X147877938Y-93773440D01*
X147935245Y-93932298D01*
X148021144Y-94080906D01*
X148132986Y-94213735D01*
X148268123Y-94325256D01*
X148285883Y-94337011D01*
X148342150Y-94375508D01*
X148384923Y-94408863D01*
X148405372Y-94430160D01*
X148405669Y-94430833D01*
X148401279Y-94453871D01*
X148383876Y-94506157D01*
X148355268Y-94583390D01*
X148317265Y-94681268D01*
X148271674Y-94795491D01*
X148220303Y-94921758D01*
X148164962Y-95055767D01*
X148107458Y-95193218D01*
X148049601Y-95329808D01*
X147993198Y-95461237D01*
X147940058Y-95583205D01*
X147891990Y-95691409D01*
X147850801Y-95781549D01*
X147818301Y-95849323D01*
X147796297Y-95890430D01*
X147787436Y-95901226D01*
X147760360Y-95892819D01*
X147709697Y-95870272D01*
X147644183Y-95837613D01*
X147608159Y-95818520D01*
X147455168Y-95735800D01*
X147272912Y-95859075D01*
X147179875Y-95922228D01*
X147078015Y-95991727D01*
X146982562Y-96057165D01*
X146934750Y-96090117D01*
X146867505Y-96135273D01*
X146810564Y-96171057D01*
X146771354Y-96192938D01*
X146758619Y-96197563D01*
X146740083Y-96185085D01*
X146699059Y-96150252D01*
X146639525Y-96096678D01*
X146565458Y-96027983D01*
X146480835Y-95947781D01*
X146427315Y-95896286D01*
X146333681Y-95804286D01*
X146252759Y-95721999D01*
X146187823Y-95652945D01*
X146142142Y-95600644D01*
X146118989Y-95568616D01*
X146116768Y-95562116D01*
X146127076Y-95537394D01*
X146155561Y-95487405D01*
X146199063Y-95417212D01*
X146254423Y-95331875D01*
X146318480Y-95236456D01*
X146336697Y-95209854D01*
X146403073Y-95113167D01*
X146462622Y-95026117D01*
X146512016Y-94953595D01*
X146547925Y-94900493D01*
X146567019Y-94871703D01*
X146568864Y-94868726D01*
X146566105Y-94845782D01*
X146551462Y-94795336D01*
X146527487Y-94724041D01*
X146496734Y-94638547D01*
X146461756Y-94545507D01*
X146425107Y-94451574D01*
X146389339Y-94363399D01*
X146357006Y-94287634D01*
X146330662Y-94230931D01*
X146312858Y-94199943D01*
X146311593Y-94198457D01*
X146300706Y-94189601D01*
X146282318Y-94180843D01*
X146252394Y-94171277D01*
X146206897Y-94159996D01*
X146141791Y-94146093D01*
X146053039Y-94128663D01*
X145936607Y-94106798D01*
X145788458Y-94079591D01*
X145756382Y-94073741D01*
X145661314Y-94055374D01*
X145578435Y-94037405D01*
X145515070Y-94021569D01*
X145478542Y-94009600D01*
X145473644Y-94006810D01*
X145465573Y-93982072D01*
X145459013Y-93926790D01*
X145453967Y-93847389D01*
X145450441Y-93750296D01*
X145448439Y-93641938D01*
X145447964Y-93528740D01*
X145449023Y-93417128D01*
X145451618Y-93313529D01*
X145455754Y-93224368D01*
X145461437Y-93156072D01*
X145468669Y-93115066D01*
X145473029Y-93106674D01*
X145497302Y-93098208D01*
X145552574Y-93084435D01*
X145633338Y-93066550D01*
X145734088Y-93045748D01*
X145849317Y-93023223D01*
X145912098Y-93011418D01*
X146031213Y-92989151D01*
X146137435Y-92968979D01*
X146225573Y-92951915D01*
X146290434Y-92938969D01*
X146326826Y-92931155D01*
X146332816Y-92929422D01*
X146342939Y-92909890D01*
X146364338Y-92862843D01*
X146394161Y-92795003D01*
X146429555Y-92713091D01*
X146467668Y-92623828D01*
X146505647Y-92533935D01*
X146540640Y-92450135D01*
X146569794Y-92379147D01*
X146590257Y-92327694D01*
X146599177Y-92302497D01*
X146599343Y-92301396D01*
X146589231Y-92281519D01*
X146560883Y-92235777D01*
X146517277Y-92168717D01*
X146461394Y-92084884D01*
X146396213Y-91988826D01*
X146358321Y-91933650D01*
X146289275Y-91832481D01*
X146227950Y-91740630D01*
X146177337Y-91662744D01*
X146140429Y-91603469D01*
X146120218Y-91567451D01*
X146117299Y-91559377D01*
X146129847Y-91540584D01*
X146164537Y-91500457D01*
X146216937Y-91443493D01*
X146282616Y-91374185D01*
X146357144Y-91297031D01*
X146436087Y-91216525D01*
X146515017Y-91137163D01*
X146589500Y-91063440D01*
X146655106Y-90999852D01*
X146707404Y-90950894D01*
X146741961Y-90921061D01*
X146753522Y-90913942D01*
X146772346Y-90923953D01*
X146817369Y-90952078D01*
X146884213Y-90995454D01*
X146968501Y-91051218D01*
X147065856Y-91116506D01*
X147139293Y-91166246D01*
X147510333Y-91418551D01*
X148128905Y-91163555D01*
X148212725Y-90718931D01*
X148296546Y-90274307D01*
X149221994Y-90274307D01*
X149305814Y-90718931D01*
G36*
X149305814Y-90718931D02*
G01*
X149389635Y-91163555D01*
X149698920Y-91291053D01*
X150008206Y-91418551D01*
X150379246Y-91166246D01*
X150483157Y-91095996D01*
X150577087Y-91033272D01*
X150656652Y-90980938D01*
X150717470Y-90941857D01*
X150755157Y-90918893D01*
X150765421Y-90913942D01*
X150783910Y-90926676D01*
X150823420Y-90961882D01*
X150879522Y-91015062D01*
X150947787Y-91081718D01*
X151023786Y-91157354D01*
X151103092Y-91237472D01*
X151181275Y-91317574D01*
X151253907Y-91393164D01*
X151316559Y-91459745D01*
X151364803Y-91512818D01*
X151394210Y-91547887D01*
X151401241Y-91559623D01*
X151391123Y-91581260D01*
X151362759Y-91628662D01*
X151319129Y-91697193D01*
X151263218Y-91782215D01*
X151198006Y-91879093D01*
X151160219Y-91934350D01*
X151091343Y-92035248D01*
X151030140Y-92126299D01*
X150979578Y-92202970D01*
X150942628Y-92260728D01*
X150922258Y-92295043D01*
X150919197Y-92302254D01*
X150926136Y-92322748D01*
X150945051Y-92370513D01*
X150973087Y-92438832D01*
X151007391Y-92520989D01*
X151045109Y-92610270D01*
X151083387Y-92699958D01*
X151119370Y-92783338D01*
X151150206Y-92853694D01*
X151173039Y-92904310D01*
X151185017Y-92928471D01*
X151185724Y-92929422D01*
X151204531Y-92934036D01*
X151254618Y-92944328D01*
X151330793Y-92959287D01*
X151427865Y-92977901D01*
X151540643Y-92999159D01*
X151606442Y-93011418D01*
X151726950Y-93034362D01*
X151835797Y-93056195D01*
X151927476Y-93075722D01*
X151996481Y-93091748D01*
X152037304Y-93103079D01*
X152045511Y-93106674D01*
X152053548Y-93131006D01*
X152060033Y-93185959D01*
X152064970Y-93265108D01*
X152068364Y-93362026D01*
X152070218Y-93470287D01*
X152070538Y-93583465D01*
X152069327Y-93695135D01*
X152066590Y-93798868D01*
X152062331Y-93888241D01*
X152056555Y-93956826D01*
X152049267Y-93998197D01*
X152044895Y-94006810D01*
X152018764Y-94017133D01*
X151963393Y-94031892D01*
X151886107Y-94049352D01*
X151794230Y-94067780D01*
X151762158Y-94073741D01*
X151607524Y-94102066D01*
X151485375Y-94124876D01*
X151391673Y-94143080D01*
X151322384Y-94157583D01*
X151273471Y-94169292D01*
X151240897Y-94179115D01*
X151220628Y-94187956D01*
X151208626Y-94196724D01*
X151206947Y-94198457D01*
X151190184Y-94226371D01*
X151164614Y-94280695D01*
X151132788Y-94354777D01*
X151097260Y-94441965D01*
X151060583Y-94535608D01*
X151025311Y-94629052D01*
X150993996Y-94715647D01*
X150969193Y-94788740D01*
X150953454Y-94841678D01*
X150949332Y-94867811D01*
X150949676Y-94868726D01*
X150963641Y-94890086D01*
X150995322Y-94937084D01*
X151041391Y-95004827D01*
X151098518Y-95088423D01*
X151163373Y-95182982D01*
X151181843Y-95209854D01*
X151247699Y-95307275D01*
X151305650Y-95396163D01*
X151352538Y-95471412D01*
X151385207Y-95527920D01*
X151400500Y-95560581D01*
X151401241Y-95564593D01*
X151388392Y-95585684D01*
X151352888Y-95627464D01*
X151299293Y-95685445D01*
X151232171Y-95755135D01*
X151156087Y-95832045D01*
X151075604Y-95911683D01*
X150995287Y-95989561D01*
X150919699Y-96061186D01*
X150853405Y-96122070D01*
X150800969Y-96167721D01*
X150766955Y-96193650D01*
X150757545Y-96197883D01*
X150735643Y-96187912D01*
X150690800Y-96161020D01*
X150630321Y-96121736D01*
X150583789Y-96090117D01*
X150499475Y-96032098D01*
X150399626Y-95963784D01*
X150299473Y-95895579D01*
X150245627Y-95859075D01*
X150063371Y-95735800D01*
X149910381Y-95818520D01*
X149840682Y-95854759D01*
X149781414Y-95882926D01*
X149741311Y-95898991D01*
X149731103Y-95901226D01*
X149718829Y-95884722D01*
X149694613Y-95838082D01*
X149660263Y-95765609D01*
X149617588Y-95671606D01*
X149568394Y-95560374D01*
X149514490Y-95436215D01*
X149457684Y-95303432D01*
X149399782Y-95166327D01*
X149342593Y-95029202D01*
X149287924Y-94896358D01*
X149237584Y-94772098D01*
X149193380Y-94660725D01*
X149157119Y-94566539D01*
X149130609Y-94493844D01*
X149115658Y-94446941D01*
X149113254Y-94430833D01*
X149132311Y-94410286D01*
X149174036Y-94376933D01*
X149229706Y-94337702D01*
X149234378Y-94334599D01*
X149378264Y-94219423D01*
X149494283Y-94085053D01*
X149581430Y-93935784D01*
X149638699Y-93775913D01*
X149665086Y-93609737D01*
X149659585Y-93441552D01*
X149621190Y-93275655D01*
X149548895Y-93116342D01*
X149527626Y-93081487D01*
X149416996Y-92940737D01*
X149286302Y-92827714D01*
X149140064Y-92743003D01*
X148982808Y-92687194D01*
X148819057Y-92660874D01*
X148653333Y-92664630D01*
X148490162Y-92699050D01*
X148334065Y-92764723D01*
X148189567Y-92862235D01*
X148144869Y-92901813D01*
X148031112Y-93025703D01*
X147948218Y-93156124D01*
X147891356Y-93302315D01*
X147859687Y-93447088D01*
X147851869Y-93609860D01*
X147877938Y-93773440D01*
X147935245Y-93932298D01*
X148021144Y-94080906D01*
X148132986Y-94213735D01*
X148268123Y-94325256D01*
X148285883Y-94337011D01*
X148342150Y-94375508D01*
X148384923Y-94408863D01*
X148405372Y-94430160D01*
X148405669Y-94430833D01*
X148401279Y-94453871D01*
X148383876Y-94506157D01*
X148355268Y-94583390D01*
X148317265Y-94681268D01*
X148271674Y-94795491D01*
X148220303Y-94921758D01*
X148164962Y-95055767D01*
X148107458Y-95193218D01*
X148049601Y-95329808D01*
X147993198Y-95461237D01*
X147940058Y-95583205D01*
X147891990Y-95691409D01*
X147850801Y-95781549D01*
X147818301Y-95849323D01*
X147796297Y-95890430D01*
X147787436Y-95901226D01*
X147760360Y-95892819D01*
X147709697Y-95870272D01*
X147644183Y-95837613D01*
X147608159Y-95818520D01*
X147455168Y-95735800D01*
X147272912Y-95859075D01*
X147179875Y-95922228D01*
X147078015Y-95991727D01*
X146982562Y-96057165D01*
X146934750Y-96090117D01*
X146867505Y-96135273D01*
X146810564Y-96171057D01*
X146771354Y-96192938D01*
X146758619Y-96197563D01*
X146740083Y-96185085D01*
X146699059Y-96150252D01*
X146639525Y-96096678D01*
X146565458Y-96027983D01*
X146480835Y-95947781D01*
X146427315Y-95896286D01*
X146333681Y-95804286D01*
X146252759Y-95721999D01*
X146187823Y-95652945D01*
X146142142Y-95600644D01*
X146118989Y-95568616D01*
X146116768Y-95562116D01*
X146127076Y-95537394D01*
X146155561Y-95487405D01*
X146199063Y-95417212D01*
X146254423Y-95331875D01*
X146318480Y-95236456D01*
X146336697Y-95209854D01*
X146403073Y-95113167D01*
X146462622Y-95026117D01*
X146512016Y-94953595D01*
X146547925Y-94900493D01*
X146567019Y-94871703D01*
X146568864Y-94868726D01*
X146566105Y-94845782D01*
X146551462Y-94795336D01*
X146527487Y-94724041D01*
X146496734Y-94638547D01*
X146461756Y-94545507D01*
X146425107Y-94451574D01*
X146389339Y-94363399D01*
X146357006Y-94287634D01*
X146330662Y-94230931D01*
X146312858Y-94199943D01*
X146311593Y-94198457D01*
X146300706Y-94189601D01*
X146282318Y-94180843D01*
X146252394Y-94171277D01*
X146206897Y-94159996D01*
X146141791Y-94146093D01*
X146053039Y-94128663D01*
X145936607Y-94106798D01*
X145788458Y-94079591D01*
X145756382Y-94073741D01*
X145661314Y-94055374D01*
X145578435Y-94037405D01*
X145515070Y-94021569D01*
X145478542Y-94009600D01*
X145473644Y-94006810D01*
X145465573Y-93982072D01*
X145459013Y-93926790D01*
X145453967Y-93847389D01*
X145450441Y-93750296D01*
X145448439Y-93641938D01*
X145447964Y-93528740D01*
X145449023Y-93417128D01*
X145451618Y-93313529D01*
X145455754Y-93224368D01*
X145461437Y-93156072D01*
X145468669Y-93115066D01*
X145473029Y-93106674D01*
X145497302Y-93098208D01*
X145552574Y-93084435D01*
X145633338Y-93066550D01*
X145734088Y-93045748D01*
X145849317Y-93023223D01*
X145912098Y-93011418D01*
X146031213Y-92989151D01*
X146137435Y-92968979D01*
X146225573Y-92951915D01*
X146290434Y-92938969D01*
X146326826Y-92931155D01*
X146332816Y-92929422D01*
X146342939Y-92909890D01*
X146364338Y-92862843D01*
X146394161Y-92795003D01*
X146429555Y-92713091D01*
X146467668Y-92623828D01*
X146505647Y-92533935D01*
X146540640Y-92450135D01*
X146569794Y-92379147D01*
X146590257Y-92327694D01*
X146599177Y-92302497D01*
X146599343Y-92301396D01*
X146589231Y-92281519D01*
X146560883Y-92235777D01*
X146517277Y-92168717D01*
X146461394Y-92084884D01*
X146396213Y-91988826D01*
X146358321Y-91933650D01*
X146289275Y-91832481D01*
X146227950Y-91740630D01*
X146177337Y-91662744D01*
X146140429Y-91603469D01*
X146120218Y-91567451D01*
X146117299Y-91559377D01*
X146129847Y-91540584D01*
X146164537Y-91500457D01*
X146216937Y-91443493D01*
X146282616Y-91374185D01*
X146357144Y-91297031D01*
X146436087Y-91216525D01*
X146515017Y-91137163D01*
X146589500Y-91063440D01*
X146655106Y-90999852D01*
X146707404Y-90950894D01*
X146741961Y-90921061D01*
X146753522Y-90913942D01*
X146772346Y-90923953D01*
X146817369Y-90952078D01*
X146884213Y-90995454D01*
X146968501Y-91051218D01*
X147065856Y-91116506D01*
X147139293Y-91166246D01*
X147510333Y-91418551D01*
X148128905Y-91163555D01*
X148212725Y-90718931D01*
X148296546Y-90274307D01*
X149221994Y-90274307D01*
X149305814Y-90718931D01*
G37*
D11*
%TO.C,C10*%
X151840000Y-96563748D02*
X151840000Y-97986252D01*
X153660000Y-96563748D02*
X153660000Y-97986252D01*
%TO.C,L1*%
X163550000Y-91050000D02*
X163550000Y-101450000D01*
X163550000Y-101450000D02*
X166350000Y-101450000D01*
X166350000Y-91050000D02*
X163550000Y-91050000D01*
X171150000Y-91050000D02*
X173950000Y-91050000D01*
X173950000Y-91050000D02*
X173950000Y-101450000D01*
X173950000Y-101450000D02*
X171150000Y-101450000D01*
%TO.C,R12*%
X161677064Y-90290000D02*
X157322936Y-90290000D01*
X161677064Y-93710000D02*
X157322936Y-93710000D01*
%TO.C,C16*%
X174590000Y-93436252D02*
X174590000Y-92013748D01*
X176410000Y-93436252D02*
X176410000Y-92013748D01*
%TD*%
%LPC*%
D14*
%TO.C,Q5*%
X160375000Y-100250000D03*
X160375000Y-102150000D03*
X162250000Y-101200000D03*
%TD*%
D15*
%TO.C,J2*%
X142350000Y-92500000D03*
X142350000Y-94500000D03*
X142350000Y-96500000D03*
X142350000Y-98500000D03*
X142350000Y-100500000D03*
%TD*%
D16*
%TO.C,U5*%
X157025000Y-94795000D03*
X157025000Y-96065000D03*
X157025000Y-97335000D03*
X157025000Y-98605000D03*
X161975000Y-98605000D03*
X161975000Y-97335000D03*
X161975000Y-96065000D03*
X161975000Y-94795000D03*
%TD*%
D15*
%TO.C,J1*%
X182650000Y-92500000D03*
X182650000Y-94500000D03*
X182650000Y-96500000D03*
X182650000Y-98500000D03*
X182650000Y-100500000D03*
%TD*%
D17*
%TO.C,D3*%
X176000000Y-96750000D03*
X176000000Y-100750000D03*
%TD*%
D18*
%TO.C,C10*%
X152750000Y-95800000D03*
X152750000Y-98750000D03*
%TD*%
D19*
%TO.C,L1*%
X168750000Y-92250000D03*
X168750000Y-100250000D03*
%TD*%
D20*
%TO.C,R12*%
X162462500Y-92000000D03*
X156537500Y-92000000D03*
%TD*%
D21*
%TO.C,C16*%
X175500000Y-94200000D03*
X175500000Y-91250000D03*
%TD*%
%LPD*%
M02*
